<?xml version="1.0" encoding="UTF-8" standalone="no"?>
<!-- Created with Inkscape (http://www.inkscape.org/) -->

<svg
   width="41.860348mm"
   height="41.860348mm"
   viewBox="0 0 41.860348 41.860348"
   version="1.1"
   id="svg114"
   inkscape:version="1.1 (c4e8f9e, 2021-05-24)"
   sodipodi:docname="triffmi_favicon.svg"
   inkscape:export-filename="/Users/mes/Sync/Org/triffmi/logo/triffmi_favicon.png"
   inkscape:export-xdpi="95.800003"
   inkscape:export-ydpi="95.800003"
   xmlns:inkscape="http://www.inkscape.org/namespaces/inkscape"
   xmlns:sodipodi="http://sodipodi.sourceforge.net/DTD/sodipodi-0.dtd"
   xmlns="http://www.w3.org/2000/svg"
   xmlns:svg="http://www.w3.org/2000/svg">
  <sodipodi:namedview
     id="namedview116"
     pagecolor="#ffffff"
     bordercolor="#666666"
     borderopacity="1.0"
     inkscape:pageshadow="2"
     inkscape:pageopacity="0.0"
     inkscape:pagecheckerboard="0"
     inkscape:document-units="mm"
     showgrid="false"
     fit-margin-top="0"
     fit-margin-left="0"
     fit-margin-right="0"
     fit-margin-bottom="0"
     inkscape:zoom="0.82000134"
     inkscape:cx="-67.682816"
     inkscape:cy="179.87775"
     inkscape:window-width="1280"
     inkscape:window-height="755"
     inkscape:window-x="493"
     inkscape:window-y="287"
     inkscape:window-maximized="0"
     inkscape:current-layer="layer1" />
  <defs
     id="defs111" />
  <g
     inkscape:label="Layer 1"
     inkscape:groupmode="layer"
     id="layer1"
     transform="translate(-137.43225,-81.075516)">
    <rect
       style="fill:#3ad393;fill-opacity:1;stroke:none;stroke-width:1.80976;stroke-miterlimit:4;stroke-dasharray:none;stroke-opacity:1"
       id="rect48982"
       width="41.860001"
       height="41.860348"
       x="137.43225"
       y="81.075516" />
    <g
       id="g6792"
       transform="matrix(0.60168335,0,0,0.60168335,161.73457,18.053458)"
       style="stroke:#ffffff;stroke-opacity:1">
      <g
         id="g45615"
         style="fill:none;fill-opacity:1;stroke:#ffffff;stroke-width:1.59382;stroke-miterlimit:4;stroke-dasharray:none;stroke-opacity:1"
         transform="matrix(0,-1.7185055,-1.6699209,0,127.71277,143.49209)">
        <path
           id="path45030"
           style="fill:none;fill-opacity:1;stroke:#ffffff;stroke-width:1.59382;stroke-linecap:round;stroke-linejoin:round;stroke-miterlimit:4;stroke-dasharray:none;stroke-dashoffset:2.51339;stroke-opacity:1"
           d="M -2.4279127,71.55291 A 9.5373755,9.8656969 0 0 1 7.1094627,61.687213 9.5373755,9.8656969 0 0 1 16.646838,71.55291 9.5373755,9.8656969 0 0 1 7.1094627,81.418607" />
        <path
           style="fill:none;fill-opacity:1;stroke:#ffffff;stroke-width:1.59382;stroke-linecap:butt;stroke-linejoin:miter;stroke-miterlimit:4;stroke-dasharray:none;stroke-opacity:1"
           d="m -2.4279125,71.552909 -0.075369,9.863418 m 9.6127443,0.0023 v 0 0"
           id="path45286"
           sodipodi:nodetypes="ccccc" />
      </g>
      <path
         id="path45623"
         style="fill:none;fill-opacity:1;stroke:#ffffff;stroke-width:2.73684;stroke-linecap:square;stroke-linejoin:miter;stroke-miterlimit:4;stroke-dasharray:none;stroke-dashoffset:2.51339;stroke-opacity:1"
         d="M 8.225067,142.13983 A 10.913563,10.865382 0 0 0 19.138621,131.27444 10.913563,10.865382 0 0 0 8.225067,120.40906 10.913563,10.865382 0 0 0 -2.6884869,131.27444" />
      <path
         style="fill:none;fill-opacity:1;stroke:#ffffff;stroke-width:2.73684;stroke-linecap:butt;stroke-linejoin:miter;stroke-miterlimit:4;stroke-dasharray:none;stroke-opacity:1"
         d="m 8.225067,142.13983 -11.0729553,0.0859 -0.00258,-5.18469 5.3629415,-0.0352"
         id="path45625"
         sodipodi:nodetypes="cccc" />
      <path
         id="path45629"
         style="fill:none;fill-opacity:1;stroke:#ffffff;stroke-width:2.7;stroke-linecap:round;stroke-linejoin:round;stroke-miterlimit:4;stroke-dasharray:none;stroke-dashoffset:2.51339;stroke-opacity:1"
         d="m 8.225067,136.9609 a 5.7139174,5.6864579 0 0 0 5.713923,-5.68646 5.7139174,5.6864579 0 0 0 -5.713923,-5.68645 5.7139174,5.6864579 0 0 0 -5.7139225,5.68645" />
      <path
         style="fill:none;fill-opacity:1;stroke:#ffffff;stroke-width:2.7;stroke-linecap:butt;stroke-linejoin:miter;stroke-miterlimit:4;stroke-dasharray:none;stroke-opacity:1"
         d="m 8.225067,136.9609 -5.7125938,0.0449 -9.826e-4,-5.7314 v 0"
         id="path45631"
         sodipodi:nodetypes="cccc" />
      <path
         id="path46205"
         style="fill:none;fill-opacity:1;stroke:#ffffff;stroke-width:2.7;stroke-linecap:round;stroke-linejoin:round;stroke-miterlimit:4;stroke-dasharray:none;stroke-dashoffset:2.51339;stroke-opacity:1"
         d="m -19.414878,131.41288 c -4.549423,0 -8.668163,1.83451 -11.649535,4.80053 -2.981383,2.96601 -4.825399,7.06352 -4.825399,11.5895 0,4.52598 1.844016,8.62349 4.825399,11.5895 2.981372,2.96601 7.100112,4.80053 11.649535,4.80053 4.549424,0 8.668163,-1.83452 11.6495348,-4.80053 2.9813833,-2.96601 4.8253995,-7.06352 4.8253995,-11.5895"
         sodipodi:nodetypes="csssssc" />
      <path
         style="fill:none;fill-opacity:1;stroke:#ffffff;stroke-width:2.7;stroke-linecap:butt;stroke-linejoin:miter;stroke-miterlimit:4;stroke-dasharray:none;stroke-opacity:1"
         d="m -19.414878,131.41288 16.7263911,-0.13844"
         id="path46207"
         sodipodi:nodetypes="cc" />
      <path
         id="path46211"
         style="fill:none;fill-opacity:1;stroke:#ffffff;stroke-width:2.73684;stroke-linecap:round;stroke-linejoin:round;stroke-miterlimit:4;stroke-dasharray:none;stroke-dashoffset:2.51339;stroke-opacity:1"
         d="m -19.414878,136.93753 a 10.913563,10.865382 0 0 0 -10.913554,10.86538 10.913563,10.865382 0 0 0 10.913554,10.86538 10.913563,10.865382 0 0 0 10.913554,-10.86538" />
      <path
         style="fill:none;fill-opacity:1;stroke:#ffffff;stroke-width:2.73684;stroke-linecap:butt;stroke-linejoin:miter;stroke-miterlimit:4;stroke-dasharray:none;stroke-opacity:1"
         d="m -19.414878,136.93753 10.9110418,-0.0859 0.00223,10.95125 v 0"
         id="path46213"
         sodipodi:nodetypes="cccc" />
      <path
         id="path46215"
         style="fill:none;fill-opacity:1;stroke:#ffffff;stroke-width:2.7;stroke-linecap:round;stroke-linejoin:round;stroke-miterlimit:4;stroke-dasharray:none;stroke-dashoffset:2.51339;stroke-opacity:1"
         d="m -19.414878,142.11645 a 5.7139174,5.6864579 0 0 0 -5.713922,5.68646 5.7139174,5.6864579 0 0 0 5.713922,5.68646 5.7139174,5.6864579 0 0 0 5.713923,-5.68646" />
      <path
         style="fill:none;fill-opacity:1;stroke:#ffffff;stroke-width:2.7;stroke-linecap:butt;stroke-linejoin:miter;stroke-miterlimit:4;stroke-dasharray:none;stroke-opacity:1"
         d="m -19.414532,142.11645 5.712594,-0.0449 9.83e-4,5.7314 v 0"
         id="path46217"
         sodipodi:nodetypes="cccc" />
    </g>
  </g>
</svg>
