<?xml version="1.0" encoding="UTF-8" standalone="no"?>
<!-- Created with Inkscape (http://www.inkscape.org/) -->

<svg
   width="203.48619mm"
   height="52.028027mm"
   viewBox="0 0 203.48619 52.028027"
   version="1.1"
   id="svg5"
   inkscape:version="1.1 (c4e8f9e, 2021-05-24)"
   sodipodi:docname="triffmi.svg"
   inkscape:export-filename="/Users/mes/Sync/Org/triffmi/logo/triffmi.png"
   inkscape:export-xdpi="150"
   inkscape:export-ydpi="150"
   xmlns:inkscape="http://www.inkscape.org/namespaces/inkscape"
   xmlns:sodipodi="http://sodipodi.sourceforge.net/DTD/sodipodi-0.dtd"
   xmlns="http://www.w3.org/2000/svg"
   xmlns:svg="http://www.w3.org/2000/svg">
  <sodipodi:namedview
     id="namedview7"
     pagecolor="#ffffff"
     bordercolor="#666666"
     borderopacity="1.0"
     inkscape:pageshadow="2"
     inkscape:pageopacity="0.0"
     inkscape:pagecheckerboard="0"
     inkscape:document-units="mm"
     showgrid="false"
     inkscape:zoom="1.0704731"
     inkscape:cx="396.55364"
     inkscape:cy="228.87077"
     inkscape:window-width="1700"
     inkscape:window-height="934"
     inkscape:window-x="300"
     inkscape:window-y="155"
     inkscape:window-maximized="0"
     inkscape:current-layer="layer1"
     fit-margin-top="0"
     fit-margin-left="0"
     fit-margin-right="0"
     fit-margin-bottom="0"
     inkscape:snap-global="true"
     inkscape:snap-center="true"
     inkscape:snap-object-midpoints="true"
     inkscape:snap-midpoints="true"
     inkscape:snap-smooth-nodes="true"
     inkscape:snap-text-baseline="true" />
  <defs
     id="defs2">
    <inkscape:path-effect
       effect="simplify"
       id="path-effect19370"
       is_visible="true"
       lpeversion="1"
       steps="1"
       threshold="0.000461538"
       smooth_angles="360"
       helper_size="0"
       simplify_individual_paths="false"
       simplify_just_coalesce="false" />
    <inkscape:path-effect
       effect="simplify"
       id="path-effect19333"
       is_visible="true"
       lpeversion="1"
       steps="1"
       threshold="0.000461538"
       smooth_angles="360"
       helper_size="0"
       simplify_individual_paths="false"
       simplify_just_coalesce="false" />
    <inkscape:path-effect
       effect="simplify"
       id="path-effect19204"
       is_visible="true"
       lpeversion="1"
       steps="1"
       threshold="0.000461538"
       smooth_angles="360"
       helper_size="0"
       simplify_individual_paths="false"
       simplify_just_coalesce="false" />
    <inkscape:path-effect
       effect="simplify"
       id="path-effect19200"
       is_visible="true"
       lpeversion="1"
       steps="1"
       threshold="0.000461538"
       smooth_angles="360"
       helper_size="0"
       simplify_individual_paths="false"
       simplify_just_coalesce="false" />
    <inkscape:path-effect
       effect="simplify"
       id="path-effect19083"
       is_visible="true"
       lpeversion="1"
       steps="1"
       threshold="0.000461538"
       smooth_angles="360"
       helper_size="0"
       simplify_individual_paths="false"
       simplify_just_coalesce="false" />
    <inkscape:path-effect
       effect="simplify"
       id="path-effect18758"
       is_visible="true"
       lpeversion="1"
       steps="1"
       threshold="0.000461538"
       smooth_angles="360"
       helper_size="0"
       simplify_individual_paths="false"
       simplify_just_coalesce="false" />
    <inkscape:path-effect
       effect="powerstroke"
       id="path-effect18719"
       is_visible="true"
       lpeversion="1"
       offset_points="1.1224706,3.2463712"
       not_jump="true"
       sort_points="true"
       interpolator_type="CentripetalCatmullRom"
       interpolator_beta="0.75"
       start_linecap_type="round"
       linejoin_type="spiro"
       miter_limit="4"
       scale_width="1"
       end_linecap_type="round" />
    <inkscape:path-effect
       effect="simplify"
       id="path-effect18717"
       is_visible="true"
       lpeversion="1"
       steps="1"
       threshold="0.0037315876"
       smooth_angles="0"
       helper_size="0"
       simplify_individual_paths="false"
       simplify_just_coalesce="false"
       step="1" />
    <clipPath
       clipPathUnits="userSpaceOnUse"
       id="clipPath25848">
      <ellipse
         style="opacity:1;fill:#6e0080;stroke:#6e0080;stroke-width:5.85229"
         id="ellipse25850"
         cx="54.141758"
         cy="137.49228"
         rx="30.852196"
         ry="30.852203" />
    </clipPath>
    <clipPath
       id="p34c38f9728">
      <rect
         x="103.104"
         y="41.472"
         width="266.112"
         height="266.112"
         id="rect21888" />
    </clipPath>
  </defs>
  <g
     inkscape:label="Layer 1"
     inkscape:groupmode="layer"
     id="layer1"
     transform="translate(37.239812,-116.76384)">
    <g
       aria-label="triffmi"
       id="text2146"
       style="font-size:51.1528px;line-height:1.25;stroke-width:0.899583">
      <path
         d="m 36.622773,131.80558 q 0,-1.76477 0.588257,-2.55764 0.588257,-0.81844 2.250723,-0.81844 h 1.994959 l 0.332494,0.35807 v 26.5483 q 0,1.02306 0.485951,1.63689 0.485952,0.58826 1.63689,0.58826 h 3.529543 q 0.409223,1.20209 0.409223,2.65994 0,0.28134 -0.02558,0.58826 0,0.30692 -0.07673,0.56268 -1.27882,0.15346 -2.736675,0.25577 -1.457855,0.12788 -2.966862,0.12788 -2.608793,0 -4.015495,-1.3044 -1.406702,-1.32997 -1.406702,-3.96434 z m 11.483804,4.42472 q 0.255764,0.94633 0.255764,1.91823 0,1.07421 -0.255764,1.96938 l -8.363484,-0.1023 -6.880051,0.1023 q -0.204612,-0.94632 -0.204612,-1.96938 0,-0.92075 0.204612,-1.91823 l 6.956781,0.10231 z"
         style="font-family:Signika;-inkscape-font-specification:Signika"
         id="path957" />
      <path
         d="m 68.16407,136.20472 q 0,1.07421 -0.306917,2.50649 -0.306917,1.4067 -0.99748,2.48091 -0.485951,-0.12788 -1.023056,-0.15346 -0.537104,-0.0512 -1.048632,-0.0767 -1.457855,0 -2.55764,0.61384 -1.074209,0.58825 -1.841501,1.56016 -0.741716,0.94632 -1.27882,2.09726 -0.537105,1.15094 -0.869598,2.25073 l -0.767292,-0.97191 q 0.05115,-1.81592 0.485952,-3.65742 0.434799,-1.86708 1.329973,-3.42724 0.92075,-1.58574 2.429758,-2.53206 1.534584,-0.97191 3.708578,-0.97191 0.690563,0 1.329973,0.0767 0.664986,0.0512 1.406702,0.20461 z m -16.036404,2.50649 q 0.179035,-0.69056 0.741716,-1.53458 0.562681,-0.8696 1.176515,-1.27882 2.55764,0.56268 3.810883,2.58321 1.253244,1.99496 1.432279,5.03855 v 18.00579 q -0.537105,0.10231 -1.227668,0.15346 -0.690562,0.0512 -1.406702,0.0512 -0.716139,0 -1.406702,-0.0512 -0.690562,-0.0512 -1.227667,-0.15346 v -17.54541 q 0,-2.04611 -0.613833,-3.35051 -0.613834,-1.3044 -1.278821,-1.91823 z"
         style="font-family:Signika;-inkscape-font-specification:Signika"
         id="path959" />
      <path
         d="m 79.226662,161.52536 q -0.537105,0.10231 -1.227668,0.15346 -0.690562,0.0512 -1.406702,0.0512 -0.716139,0 -1.406702,-0.0512 -0.690562,-0.0512 -1.253243,-0.15346 v -18.7475 q 0,-1.35555 -0.485952,-1.99496 -0.460375,-0.66499 -1.739195,-0.66499 h -0.562681 q -0.230188,-0.92075 -0.230188,-1.86707 0,-0.46038 0.05115,-0.92076 0.05115,-0.48595 0.179035,-0.99747 0.971903,-0.12789 1.815924,-0.17904 0.869598,-0.0512 1.432279,-0.0512 h 0.690563 q 1.91823,0 3.018015,1.22766 1.125362,1.2021 1.125362,3.29936 z m -6.854476,-32.07281 q 0,-0.56268 0.102306,-1.20209 0.127882,-0.63941 0.358069,-1.09978 0.460376,-0.25577 1.253244,-0.4348 0.818445,-0.17904 1.560161,-0.17904 0.716139,0 1.56016,0.17904 0.844021,0.17903 1.253244,0.4348 0.230187,0.46037 0.332493,1.12536 0.127882,0.63941 0.127882,1.17651 0,0.53711 -0.127882,1.17652 -0.102306,0.63941 -0.332493,1.09978 -0.35807,0.25577 -1.227668,0.46038 -0.869597,0.17903 -1.585736,0.17903 -0.741716,0 -1.560161,-0.17903 -0.818445,-0.17904 -1.253244,-0.46038 -0.230187,-0.46037 -0.358069,-1.09978 -0.102306,-0.63941 -0.102306,-1.17652 z"
         style="font-family:Signika;-inkscape-font-specification:Signika"
         id="path961" />
      <path
         d="m 90.512249,136.33261 8.235601,-0.0767 h 1.074209 l 6.317371,0.0767 9.51442,-0.10231 q 0.20461,0.99748 0.20461,1.91823 0,1.02306 -0.20461,1.96938 l -9.54,-0.1023 -6.291791,0.0767 H 98.74785 l -8.235601,-0.0767 -6.905628,0.1023 q -0.102306,-0.48595 -0.179035,-0.94632 -0.05115,-0.48596 -0.05115,-1.02306 0,-0.48595 0.05115,-0.94633 0.07673,-0.46037 0.179035,-0.9719 z m 13.095121,2.22514 q -0.15346,-1.8415 -0.35807,-3.55512 -0.20461,-1.73919 -0.20461,-3.32493 0,-2.25072 0.92075,-4.04107 0.94632,-1.81593 2.71109,-2.86456 1.76478,-1.07421 4.27126,-1.07421 1.7392,0 3.52955,0.38365 1.81592,0.35807 3.01801,0.84402 0,0.92075 -0.33249,1.94381 -0.33249,0.99748 -0.8696,1.61131 -0.99748,-0.30692 -2.17399,-0.5371 -1.17652,-0.23019 -2.2763,-0.23019 -1.76477,0 -2.78783,1.09978 -0.99748,1.09979 -0.99748,3.17148 0,1.53458 0.23019,3.22262 0.25576,1.68805 0.48595,3.42724 v 22.89088 q -1.15094,0.20461 -2.60879,0.20461 -1.38113,0 -2.55764,-0.20461 z m -15.601608,0 q -0.204611,-1.79035 -0.485952,-3.52954 -0.28134,-1.76477 -0.28134,-3.35051 0,-2.25072 0.92075,-4.04107 0.946327,-1.81593 2.711099,-2.86456 1.790348,-1.07421 4.296835,-1.07421 1.406702,0 2.787828,0.25577 1.381125,0.23019 2.378608,0.5371 0.0511,0.58826 -0.0767,1.3044 -0.12788,0.71614 -0.383648,1.35555 -0.230188,0.61383 -0.588258,0.99748 -0.690562,-0.17904 -1.509007,-0.30692 -0.818445,-0.12788 -1.713619,-0.12788 -1.764772,0 -2.787828,1.09978 -0.997479,1.09979 -0.997479,3.17148 0,1.53458 0.332493,3.22262 0.332493,1.66247 0.562681,3.42724 v 22.89088 q -0.690563,0.10231 -1.329973,0.12788 -0.63941,0.0511 -1.27882,0.0511 -0.588257,0 -1.253244,-0.0511 -0.63941,-0.0256 -1.304396,-0.12788 z"
         style="font-family:Signika;-inkscape-font-specification:Signika"
         id="path963" />
      <path
         d="m 121.80098,136.05126 q 1.63689,0 2.30188,0.99748 0.66499,0.99748 0.66499,2.76226 v 21.71436 q -0.51153,0.10231 -1.20209,0.15346 -0.69057,0.0512 -1.40671,0.0512 -0.71614,0 -1.4067,-0.0512 -0.69056,-0.0512 -1.25324,-0.15346 v -25.11603 l 0.33249,-0.35807 z m 11.56054,9.46327 q 0,-2.7111 -0.76729,-3.81088 -0.7673,-1.12536 -2.2763,-1.12536 -1.27882,0 -2.73668,0.81844 -1.43228,0.79287 -2.65994,2.12284 -1.22767,1.32998 -1.94381,2.96687 v -5.14086 q 1.12536,-1.58574 2.55764,-2.8134 1.45785,-1.25325 3.09474,-1.96939 1.66247,-0.74171 3.37609,-0.74171 2.22514,0 3.70858,1.07421 1.48343,1.04863 2.19957,2.86455 0.74171,1.79035 0.74171,3.98992 v 17.7756 q -0.56268,0.10231 -1.25324,0.15346 -0.69056,0.0512 -1.38113,0.0512 -0.71614,0 -1.4067,-0.0512 -0.69056,-0.0512 -1.25324,-0.15346 z m 13.86241,-0.0512 q 0,-2.7111 -0.79287,-3.78531 -0.76729,-1.09978 -2.2763,-1.09978 -1.20209,0 -2.63437,0.79287 -1.4067,0.76729 -2.68552,2.12284 -1.27882,1.35555 -2.12284,3.12032 v -5.88257 q 1.27882,-1.38113 2.76225,-2.48091 1.48343,-1.12537 3.14589,-1.76478 1.66247,-0.66498 3.35051,-0.66498 2.22515,0 3.683,1.07421 1.45786,1.07421 2.14842,2.89013 0.71614,1.79035 0.71614,4.04107 v 12.30225 q 0,1.32997 0.17904,2.53206 0.17903,1.17652 0.66498,2.07169 -0.58825,0.48595 -1.48343,0.79287 -0.8696,0.33249 -1.81592,0.33249 -1.56016,0 -2.19957,-0.84402 -0.63941,-0.84402 -0.63941,-2.50649 z"
         style="font-family:Signika;-inkscape-font-specification:Signika"
         id="path965" />
      <path
         d="m 166.24638,161.52536 q -0.53711,0.10231 -1.22767,0.15346 -0.69056,0.0512 -1.4067,0.0512 -0.71614,0 -1.40671,-0.0512 -0.69056,-0.0512 -1.25324,-0.15346 v -18.7475 q 0,-1.35555 -0.48595,-1.99496 -0.46038,-0.66499 -1.7392,-0.66499 h -0.56268 q -0.23018,-0.92075 -0.23018,-1.86707 0,-0.46038 0.0511,-0.92076 0.0512,-0.48595 0.17903,-0.99747 0.97191,-0.12789 1.81593,-0.17904 0.8696,-0.0512 1.43228,-0.0512 h 0.69056 q 1.91823,0 3.01801,1.22766 1.12537,1.2021 1.12537,3.29936 z m -6.85448,-32.07281 q 0,-0.56268 0.10231,-1.20209 0.12788,-0.63941 0.35807,-1.09978 0.46037,-0.25577 1.25324,-0.4348 0.81844,-0.17904 1.56016,-0.17904 0.71614,0 1.56016,0.17904 0.84402,0.17903 1.25324,0.4348 0.23019,0.46037 0.3325,1.12536 0.12788,0.63941 0.12788,1.17651 0,0.53711 -0.12788,1.17652 -0.10231,0.63941 -0.3325,1.09978 -0.35807,0.25577 -1.22766,0.46038 -0.8696,0.17903 -1.58574,0.17903 -0.74172,0 -1.56016,-0.17903 -0.81845,-0.17904 -1.25324,-0.46038 -0.23019,-0.46037 -0.35807,-1.09978 -0.10231,-0.63941 -0.10231,-1.17652 z"
         style="font-family:Signika;-inkscape-font-specification:Signika"
         id="path967" />
    </g>
    <text
       xml:space="preserve"
       style="font-style:normal;font-weight:normal;font-size:10.5833px;line-height:1.25;font-family:sans-serif;fill:#000000;fill-opacity:1;stroke:none;stroke-width:0.264583"
       x="-50.8666"
       y="97.785309"
       id="text33855"><tspan
         sodipodi:role="line"
         id="tspan33853"
         style="stroke-width:0.264583"
         x="-50.8666"
         y="97.785309" /></text>
    <g
       id="g6792"
       transform="translate(0,3.2489297)">
      <g
         id="g45615"
         style="fill:none;fill-opacity:1;stroke:#3ad393;stroke-width:1.59382;stroke-miterlimit:4;stroke-dasharray:none;stroke-opacity:1"
         transform="matrix(0,-1.7185055,-1.6699209,0,127.71277,143.49209)">
        <path
           id="path45030"
           style="fill:none;fill-opacity:1;stroke:#3ad393;stroke-width:1.59382;stroke-linecap:round;stroke-linejoin:round;stroke-miterlimit:4;stroke-dasharray:none;stroke-dashoffset:2.51339;stroke-opacity:1"
           d="M -2.4279127,71.55291 A 9.5373755,9.8656969 0 0 1 7.1094627,61.687213 9.5373755,9.8656969 0 0 1 16.646838,71.55291 9.5373755,9.8656969 0 0 1 7.1094627,81.418607" />
        <path
           style="fill:none;fill-opacity:1;stroke:#3ad393;stroke-width:1.59382;stroke-linecap:butt;stroke-linejoin:miter;stroke-miterlimit:4;stroke-dasharray:none;stroke-opacity:1"
           d="m -2.4279125,71.552909 -0.075369,9.863418 m 9.6127443,0.0023 v 0 0"
           id="path45286"
           sodipodi:nodetypes="ccccc" />
      </g>
      <path
         id="path45623"
         style="fill:none;fill-opacity:1;stroke:#3ad393;stroke-width:2.73684;stroke-linecap:square;stroke-linejoin:miter;stroke-miterlimit:4;stroke-dasharray:none;stroke-dashoffset:2.51339;stroke-opacity:1"
         d="M 8.225067,142.13983 A 10.913563,10.865382 0 0 0 19.138621,131.27444 10.913563,10.865382 0 0 0 8.225067,120.40906 10.913563,10.865382 0 0 0 -2.6884869,131.27444" />
      <path
         style="fill:none;fill-opacity:1;stroke:#3ad393;stroke-width:2.73684;stroke-linecap:butt;stroke-linejoin:miter;stroke-miterlimit:4;stroke-dasharray:none;stroke-opacity:1"
         d="m 8.225067,142.13983 -11.0729553,0.0859 -0.00258,-5.18469 5.3629415,-0.0352"
         id="path45625"
         sodipodi:nodetypes="cccc" />
      <path
         id="path45629"
         style="fill:none;fill-opacity:1;stroke:#3ad393;stroke-width:2.7;stroke-linecap:round;stroke-linejoin:round;stroke-miterlimit:4;stroke-dasharray:none;stroke-dashoffset:2.51339;stroke-opacity:1"
         d="m 8.225067,136.9609 a 5.7139174,5.6864579 0 0 0 5.713923,-5.68646 5.7139174,5.6864579 0 0 0 -5.713923,-5.68645 5.7139174,5.6864579 0 0 0 -5.7139225,5.68645" />
      <path
         style="fill:none;fill-opacity:1;stroke:#3ad393;stroke-width:2.7;stroke-linecap:butt;stroke-linejoin:miter;stroke-miterlimit:4;stroke-dasharray:none;stroke-opacity:1"
         d="m 8.225067,136.9609 -5.7125938,0.0449 -9.826e-4,-5.7314 v 0"
         id="path45631"
         sodipodi:nodetypes="cccc" />
      <path
         id="path46205"
         style="fill:none;fill-opacity:1;stroke:#3ad393;stroke-width:2.7;stroke-linecap:round;stroke-linejoin:round;stroke-miterlimit:4;stroke-dasharray:none;stroke-dashoffset:2.51339;stroke-opacity:1"
         d="m -19.414878,131.41288 c -4.549423,0 -8.668163,1.83451 -11.649535,4.80053 -2.981383,2.96601 -4.825399,7.06352 -4.825399,11.5895 0,4.52598 1.844016,8.62349 4.825399,11.5895 2.981372,2.96601 7.100112,4.80053 11.649535,4.80053 4.549424,0 8.668163,-1.83452 11.6495348,-4.80053 2.9813833,-2.96601 4.8253995,-7.06352 4.8253995,-11.5895"
         sodipodi:nodetypes="csssssc" />
      <path
         style="fill:none;fill-opacity:1;stroke:#3ad393;stroke-width:2.7;stroke-linecap:butt;stroke-linejoin:miter;stroke-miterlimit:4;stroke-dasharray:none;stroke-opacity:1"
         d="m -19.414878,131.41288 16.7263911,-0.13844"
         id="path46207"
         sodipodi:nodetypes="cc" />
      <path
         id="path46211"
         style="fill:none;fill-opacity:1;stroke:#3ad393;stroke-width:2.73684;stroke-linecap:round;stroke-linejoin:round;stroke-miterlimit:4;stroke-dasharray:none;stroke-dashoffset:2.51339;stroke-opacity:1"
         d="m -19.414878,136.93753 a 10.913563,10.865382 0 0 0 -10.913554,10.86538 10.913563,10.865382 0 0 0 10.913554,10.86538 10.913563,10.865382 0 0 0 10.913554,-10.86538" />
      <path
         style="fill:none;fill-opacity:1;stroke:#3ad393;stroke-width:2.73684;stroke-linecap:butt;stroke-linejoin:miter;stroke-miterlimit:4;stroke-dasharray:none;stroke-opacity:1"
         d="m -19.414878,136.93753 10.9110418,-0.0859 0.00223,10.95125 v 0"
         id="path46213"
         sodipodi:nodetypes="cccc" />
      <path
         id="path46215"
         style="fill:none;fill-opacity:1;stroke:#3ad393;stroke-width:2.7;stroke-linecap:round;stroke-linejoin:round;stroke-miterlimit:4;stroke-dasharray:none;stroke-dashoffset:2.51339;stroke-opacity:1"
         d="m -19.414878,142.11645 a 5.7139174,5.6864579 0 0 0 -5.713922,5.68646 5.7139174,5.6864579 0 0 0 5.713922,5.68646 5.7139174,5.6864579 0 0 0 5.713923,-5.68646" />
      <path
         style="fill:none;fill-opacity:1;stroke:#3ad393;stroke-width:2.7;stroke-linecap:butt;stroke-linejoin:miter;stroke-miterlimit:4;stroke-dasharray:none;stroke-opacity:1"
         d="m -19.414532,142.11645 5.712594,-0.0449 9.83e-4,5.7314 v 0"
         id="path46217"
         sodipodi:nodetypes="cccc" />
    </g>
  </g>
</svg>
