<?xml version="1.0" encoding="UTF-8"?>
<!-- Created with Inkscape (http://www.inkscape.org/) -->
<svg width="203.49mm" height="52.028mm" version="1.1" viewBox="0 0 203.49 52.028" xmlns="http://www.w3.org/2000/svg">
 <g transform="translate(37.24 -116.76)">
  <g stroke-width=".89958" aria-label="triffmi">
   <path d="m36.623 131.81q0-1.7648 0.58826-2.5576 0.58826-0.81844 2.2507-0.81844h1.995l0.33249 0.35807v26.548q0 1.0231 0.48595 1.6369 0.48595 0.58826 1.6369 0.58826h3.5295q0.40922 1.2021 0.40922 2.6599 0 0.28134-0.02558 0.58826 0 0.30692-0.07673 0.56268-1.2788 0.15346-2.7367 0.25577-1.4579 0.12788-2.9669 0.12788-2.6088 0-4.0155-1.3044-1.4067-1.33-1.4067-3.9643zm11.484 4.4247q0.25576 0.94633 0.25576 1.9182 0 1.0742-0.25576 1.9694l-8.3635-0.1023-6.8801 0.1023q-0.20461-0.94632-0.20461-1.9694 0-0.92075 0.20461-1.9182l6.9568 0.10231z"/>
   <path d="m68.164 136.2q0 1.0742-0.30692 2.5065-0.30692 1.4067-0.99748 2.4809-0.48595-0.12788-1.0231-0.15346-0.5371-0.0512-1.0486-0.0767-1.4579 0-2.5576 0.61384-1.0742 0.58825-1.8415 1.5602-0.74172 0.94632-1.2788 2.0973-0.5371 1.1509-0.8696 2.2507l-0.76729-0.97191q0.05115-1.8159 0.48595-3.6574 0.4348-1.8671 1.33-3.4272 0.92075-1.5857 2.4298-2.5321 1.5346-0.97191 3.7086-0.97191 0.69056 0 1.33 0.0767 0.66499 0.0512 1.4067 0.20461zm-16.036 2.5065q0.17904-0.69056 0.74172-1.5346 0.56268-0.8696 1.1765-1.2788 2.5576 0.56268 3.8109 2.5832 1.2532 1.995 1.4323 5.0386v18.006q-0.5371 0.10231-1.2277 0.15346-0.69056 0.0512-1.4067 0.0512-0.71614 0-1.4067-0.0512-0.69056-0.0512-1.2277-0.15346v-17.545q0-2.0461-0.61383-3.3505-0.61383-1.3044-1.2788-1.9182z"/>
   <path d="m79.227 161.53q-0.5371 0.10231-1.2277 0.15346-0.69056 0.0512-1.4067 0.0512-0.71614 0-1.4067-0.0512-0.69056-0.0512-1.2532-0.15346v-18.748q0-1.3556-0.48595-1.995-0.46038-0.66499-1.7392-0.66499h-0.56268q-0.23019-0.92075-0.23019-1.8671 0-0.46038 0.05115-0.92076 0.05115-0.48595 0.17904-0.99747 0.9719-0.12789 1.8159-0.17904 0.8696-0.0512 1.4323-0.0512h0.69056q1.9182 0 3.018 1.2277 1.1254 1.2021 1.1254 3.2994zm-6.8545-32.073q0-0.56268 0.10231-1.2021 0.12788-0.63941 0.35807-1.0998 0.46038-0.25577 1.2532-0.4348 0.81844-0.17904 1.5602-0.17904 0.71614 0 1.5602 0.17904 0.84402 0.17903 1.2532 0.4348 0.23019 0.46037 0.33249 1.1254 0.12788 0.63941 0.12788 1.1765 0 0.53711-0.12788 1.1765-0.10231 0.63941-0.33249 1.0998-0.35807 0.25577-1.2277 0.46038-0.8696 0.17903-1.5857 0.17903-0.74172 0-1.5602-0.17903-0.81844-0.17904-1.2532-0.46038-0.23019-0.46037-0.35807-1.0998-0.10231-0.63941-0.10231-1.1765z"/>
   <path d="m90.512 136.33 8.2356-0.0767h1.0742l6.3174 0.0767 9.5144-0.10231q0.20461 0.99748 0.20461 1.9182 0 1.0231-0.20461 1.9694l-9.54-0.1023-6.2918 0.0767h-1.0742l-8.2356-0.0767-6.9056 0.1023q-0.10231-0.48595-0.17904-0.94632-0.05115-0.48596-0.05115-1.0231 0-0.48595 0.05115-0.94633 0.07673-0.46037 0.17904-0.9719zm13.095 2.2251q-0.15346-1.8415-0.35807-3.5551-0.20461-1.7392-0.20461-3.3249 0-2.2507 0.92075-4.0411 0.94632-1.8159 2.7111-2.8646 1.7648-1.0742 4.2713-1.0742 1.7392 0 3.5296 0.38365 1.8159 0.35807 3.018 0.84402 0 0.92075-0.33249 1.9438-0.33249 0.99748-0.8696 1.6113-0.99748-0.30692-2.174-0.5371-1.1765-0.23019-2.2763-0.23019-1.7648 0-2.7878 1.0998-0.99748 1.0998-0.99748 3.1715 0 1.5346 0.23019 3.2226 0.25576 1.688 0.48595 3.4272v22.891q-1.1509 0.20461-2.6088 0.20461-1.3811 0-2.5576-0.20461zm-15.602 0q-0.20461-1.7904-0.48595-3.5295-0.28134-1.7648-0.28134-3.3505 0-2.2507 0.92075-4.0411 0.94633-1.8159 2.7111-2.8646 1.7903-1.0742 4.2968-1.0742 1.4067 0 2.7878 0.25577 1.3811 0.23019 2.3786 0.5371 0.0511 0.58826-0.0767 1.3044-0.12788 0.71614-0.38365 1.3556-0.23019 0.61383-0.58826 0.99748-0.69056-0.17904-1.509-0.30692t-1.7136-0.12788q-1.7648 0-2.7878 1.0998-0.99748 1.0998-0.99748 3.1715 0 1.5346 0.33249 3.2226 0.33249 1.6625 0.56268 3.4272v22.891q-0.69056 0.10231-1.33 0.12788-0.63941 0.0511-1.2788 0.0511-0.58826 0-1.2532-0.0511-0.63941-0.0256-1.3044-0.12788z"/>
   <path d="m121.8 136.05q1.6369 0 2.3019 0.99748t0.66499 2.7623v21.714q-0.51153 0.10231-1.2021 0.15346-0.69057 0.0512-1.4067 0.0512t-1.4067-0.0512-1.2532-0.15346v-25.116l0.33249-0.35807zm11.561 9.4633q0-2.7111-0.76729-3.8109-0.7673-1.1254-2.2763-1.1254-1.2788 0-2.7367 0.81844-1.4323 0.79287-2.6599 2.1228-1.2277 1.33-1.9438 2.9669v-5.1409q1.1254-1.5857 2.5576-2.8134 1.4578-1.2532 3.0947-1.9694 1.6625-0.74171 3.3761-0.74171 2.2251 0 3.7086 1.0742 1.4834 1.0486 2.1996 2.8646 0.74171 1.7904 0.74171 3.9899v17.776q-0.56268 0.10231-1.2532 0.15346-0.69056 0.0512-1.3811 0.0512-0.71614 0-1.4067-0.0512t-1.2532-0.15346zm13.862-0.0512q0-2.7111-0.79287-3.7853-0.76729-1.0998-2.2763-1.0998-1.2021 0-2.6344 0.79287-1.4067 0.76729-2.6855 2.1228t-2.1228 3.1203v-5.8826q1.2788-1.3811 2.7622-2.4809 1.4834-1.1254 3.1459-1.7648 1.6625-0.66498 3.3505-0.66498 2.2252 0 3.683 1.0742 1.4579 1.0742 2.1484 2.8901 0.71614 1.7904 0.71614 4.0411v12.302q0 1.33 0.17904 2.5321 0.17903 1.1765 0.66498 2.0717-0.58825 0.48595-1.4834 0.79287-0.8696 0.33249-1.8159 0.33249-1.5602 0-2.1996-0.84402t-0.63941-2.5065z"/>
   <path d="m166.25 161.53q-0.53711 0.10231-1.2277 0.15346-0.69056 0.0512-1.4067 0.0512t-1.4067-0.0512q-0.69056-0.0512-1.2532-0.15346v-18.748q0-1.3556-0.48595-1.995-0.46038-0.66499-1.7392-0.66499h-0.56268q-0.23018-0.92075-0.23018-1.8671 0-0.46038 0.0511-0.92076 0.0512-0.48595 0.17903-0.99747 0.97191-0.12789 1.8159-0.17904 0.8696-0.0512 1.4323-0.0512h0.69056q1.9182 0 3.018 1.2277 1.1254 1.2021 1.1254 3.2994zm-6.8545-32.073q0-0.56268 0.10231-1.2021 0.12788-0.63941 0.35807-1.0998 0.46037-0.25577 1.2532-0.4348 0.81844-0.17904 1.5602-0.17904 0.71614 0 1.5602 0.17904 0.84402 0.17903 1.2532 0.4348 0.23019 0.46037 0.3325 1.1254 0.12788 0.63941 0.12788 1.1765 0 0.53711-0.12788 1.1765-0.10231 0.63941-0.3325 1.0998-0.35807 0.25577-1.2277 0.46038-0.8696 0.17903-1.5857 0.17903-0.74172 0-1.5602-0.17903-0.81845-0.17904-1.2532-0.46038-0.23019-0.46037-0.35807-1.0998-0.10231-0.63941-0.10231-1.1765z"/>
  </g>
  <text x="-50.8666" y="97.785309" fill="#000000" font-family="sans-serif" font-size="10.583px" stroke-width=".26458" style="line-height:1.25" xml:space="preserve"><tspan x="-50.8666" y="97.785309" stroke-width=".26458"/></text>
  <g transform="translate(0 3.2489)" fill="none" stroke="#3ad393">
   <g transform="matrix(0 -1.7185 -1.6699 0 127.71 143.49)" stroke-width="1.5938">
    <path d="m-2.4279 71.553a9.5374 9.8657 0 0 1 9.5374-9.8657 9.5374 9.8657 0 0 1 9.5374 9.8657 9.5374 9.8657 0 0 1-9.5374 9.8657" stroke-dashoffset="2.5134" stroke-linecap="round" stroke-linejoin="round"/>
    <path d="m-2.4279 71.553-0.075369 9.8634m9.6127 0.0023"/>
   </g>
   <path d="m8.2251 142.14a10.914 10.865 0 0 0 10.914-10.865 10.914 10.865 0 0 0-10.914-10.865 10.914 10.865 0 0 0-10.914 10.865" stroke-dashoffset="2.5134" stroke-linecap="square" stroke-width="2.7368"/>
   <path d="m8.2251 142.14-11.073 0.0859-0.00258-5.1847 5.3629-0.0352" stroke-width="2.7368"/>
   <g stroke-width="2.7">
    <path d="m8.2251 136.96a5.7139 5.6865 0 0 0 5.7139-5.6865 5.7139 5.6865 0 0 0-5.7139-5.6864 5.7139 5.6865 0 0 0-5.7139 5.6864" stroke-dashoffset="2.5134" stroke-linecap="round" stroke-linejoin="round"/>
    <path d="m8.2251 136.96-5.7126 0.0449-9.826e-4 -5.7314"/>
    <path d="m-19.415 131.41c-4.5494 0-8.6682 1.8345-11.65 4.8005-2.9814 2.966-4.8254 7.0635-4.8254 11.59s1.844 8.6235 4.8254 11.59c2.9814 2.966 7.1001 4.8005 11.65 4.8005 4.5494 0 8.6682-1.8345 11.65-4.8005 2.9814-2.966 4.8254-7.0635 4.8254-11.59" stroke-dashoffset="2.5134" stroke-linecap="round" stroke-linejoin="round"/>
    <path d="m-19.415 131.41 16.726-0.13844"/>
   </g>
   <path d="m-19.415 136.94a10.914 10.865 0 0 0-10.914 10.865 10.914 10.865 0 0 0 10.914 10.865 10.914 10.865 0 0 0 10.914-10.865" stroke-dashoffset="2.5134" stroke-linecap="round" stroke-linejoin="round" stroke-width="2.7368"/>
   <path d="m-19.415 136.94 10.911-0.0859 0.00223 10.951" stroke-width="2.7368"/>
   <path d="m-19.415 142.12a5.7139 5.6865 0 0 0-5.7139 5.6865 5.7139 5.6865 0 0 0 5.7139 5.6865 5.7139 5.6865 0 0 0 5.7139-5.6865" stroke-dashoffset="2.5134" stroke-linecap="round" stroke-linejoin="round" stroke-width="2.7"/>
   <path d="m-19.415 142.12 5.7126-0.0449 9.83e-4 5.7314" stroke-width="2.7"/>
  </g>
 </g>
</svg>
