<?xml version="1.0" encoding="UTF-8" standalone="no"?>
<!-- Created with Inkscape (http://www.inkscape.org/) -->

<svg
   width="197.85437mm"
   height="43.670109mm"
   viewBox="0 0 197.85437 43.670109"
   version="1.1"
   id="svg5"
   inkscape:version="1.1.1 (c3084ef, 2021-09-22)"
   sodipodi:docname="triffmi.svg"
   inkscape:export-filename="/Users/mes/Sync/Org/Amuon/logo/triffmi.png"
   inkscape:export-xdpi="150"
   inkscape:export-ydpi="150"
   xmlns:inkscape="http://www.inkscape.org/namespaces/inkscape"
   xmlns:sodipodi="http://sodipodi.sourceforge.net/DTD/sodipodi-0.dtd"
   xmlns="http://www.w3.org/2000/svg"
   xmlns:svg="http://www.w3.org/2000/svg">
  <sodipodi:namedview
     id="namedview7"
     pagecolor="#ffffff"
     bordercolor="#666666"
     borderopacity="1.0"
     inkscape:pageshadow="2"
     inkscape:pageopacity="0.0"
     inkscape:pagecheckerboard="0"
     inkscape:document-units="mm"
     showgrid="false"
     inkscape:zoom="0.67955748"
     inkscape:cx="370.09379"
     inkscape:cy="177.32128"
     inkscape:window-width="1280"
     inkscape:window-height="755"
     inkscape:window-x="0"
     inkscape:window-y="23"
     inkscape:window-maximized="0"
     inkscape:current-layer="layer1"
     fit-margin-top="0"
     fit-margin-left="0"
     fit-margin-right="0"
     fit-margin-bottom="0" />
  <defs
     id="defs2">
    <clipPath
       clipPathUnits="userSpaceOnUse"
       id="clipPath25848">
      <ellipse
         style="opacity:1;fill:#6e0080;stroke:#6e0080;stroke-width:5.85229"
         id="ellipse25850"
         cx="54.141758"
         cy="137.49228"
         rx="30.852196"
         ry="30.852203" />
    </clipPath>
  </defs>
  <g
     inkscape:label="Layer 1"
     inkscape:groupmode="layer"
     id="layer1"
     transform="translate(-7.2551513,-116.76384)">
    <g
       aria-label="tri"
       id="text2146"
       style="font-size:51.1528px;line-height:1.25;stroke-width:0.212465">
      <path
         d="m 36.622773,126.47021 q 0,-1.76477 0.588257,-2.55764 0.588257,-0.81845 2.250723,-0.81845 h 1.994959 l 0.332494,0.35807 v 26.54831 q 0,1.02305 0.485951,1.63689 0.485952,0.58826 1.63689,0.58826 h 3.529543 q 0.409223,1.20209 0.409223,2.65994 0,0.28134 -0.02558,0.58826 0,0.30691 -0.07673,0.56268 -1.27882,0.15346 -2.736675,0.25576 -1.457855,0.12788 -2.966862,0.12788 -2.608793,0 -4.015495,-1.30439 -1.406702,-1.32997 -1.406702,-3.96434 z m 11.483804,4.42472 q 0.255764,0.94632 0.255764,1.91823 0,1.07421 -0.255764,1.96938 l -8.363484,-0.10231 -6.880051,0.10231 q -0.204612,-0.94633 -0.204612,-1.96938 0,-0.92075 0.204612,-1.91823 l 6.956781,0.1023 z"
         style="font-family:Signika;-inkscape-font-specification:Signika"
         id="path1812" />
      <path
         d="m 68.16407,130.86935 q 0,1.07421 -0.306917,2.50649 -0.306917,1.4067 -0.99748,2.48091 -0.485951,-0.12788 -1.023056,-0.15346 -0.537104,-0.0512 -1.048632,-0.0767 -1.457855,0 -2.55764,0.61383 -1.074209,0.58826 -1.841501,1.56017 -0.741716,0.94632 -1.27882,2.09726 -0.537105,1.15094 -0.869598,2.25072 l -0.767292,-0.9719 q 0.05115,-1.81592 0.485952,-3.65743 0.434799,-1.86707 1.329973,-3.42723 0.92075,-1.58574 2.429758,-2.53207 1.534584,-0.9719 3.708578,-0.9719 0.690563,0 1.329973,0.0767 0.664986,0.0512 1.406702,0.20461 z m -16.036404,2.50649 q 0.179035,-0.69057 0.741716,-1.53459 0.562681,-0.86959 1.176515,-1.27882 2.55764,0.56268 3.810883,2.58322 1.253244,1.99496 1.432279,5.03855 v 18.00579 q -0.537105,0.1023 -1.227668,0.15346 -0.690562,0.0512 -1.406702,0.0512 -0.716139,0 -1.406702,-0.0512 -0.690562,-0.0512 -1.227667,-0.15346 v -17.54541 q 0,-2.04612 -0.613833,-3.35051 -0.613834,-1.3044 -1.278821,-1.91823 z"
         style="font-family:Signika;-inkscape-font-specification:Signika"
         id="path1814" />
      <path
         d="m 79.226662,156.18999 q -0.537105,0.1023 -1.227668,0.15346 -0.690562,0.0512 -1.406702,0.0512 -0.716139,0 -1.406702,-0.0512 -0.690562,-0.0512 -1.253243,-0.15346 v -18.7475 q 0,-1.35555 -0.485952,-1.99496 -0.460375,-0.66499 -1.739195,-0.66499 h -0.562681 q -0.230188,-0.92075 -0.230188,-1.86708 0,-0.46037 0.05115,-0.92075 0.05115,-0.48595 0.179035,-0.99748 0.971903,-0.12788 1.815924,-0.17903 0.869598,-0.0512 1.432279,-0.0512 h 0.690563 q 1.91823,0 3.018015,1.22767 1.125362,1.20209 1.125362,3.29936 z m -6.854476,-32.07281 q 0,-0.56268 0.102306,-1.20209 0.127882,-0.63941 0.358069,-1.09979 0.460376,-0.25576 1.253244,-0.43479 0.818445,-0.17904 1.560161,-0.17904 0.716139,0 1.56016,0.17904 0.844021,0.17903 1.253244,0.43479 0.230187,0.46038 0.332493,1.12537 0.127882,0.63941 0.127882,1.17651 0,0.53711 -0.127882,1.17652 -0.102306,0.63941 -0.332493,1.09978 -0.35807,0.25576 -1.227668,0.46038 -0.869597,0.17903 -1.585736,0.17903 -0.741716,0 -1.560161,-0.17903 -0.818445,-0.17904 -1.253244,-0.46038 -0.230187,-0.46037 -0.358069,-1.09978 -0.102306,-0.63941 -0.102306,-1.17652 z"
         style="font-family:Signika;-inkscape-font-specification:Signika"
         id="path1816" />
    </g>
    <path
       id="rect48982"
       style="opacity:1;fill:#3ad393;stroke-width:1.80976"
       d="m 83.760094,117.81997 h 41.859996 v 41.86035 H 83.760094 Z" />
    <g
       aria-label="ff"
       id="text43362"
       style="font-size:34.5947px;line-height:1.25;fill:#ffffff;stroke-width:0.180181">
      <path
         d="m 90.853143,148.66222 c 0,2.33186 -0.06389,3.67349 -0.255547,5.23871 h 7.98585 c -0.191661,-1.53328 -0.255547,-2.81102 -0.255547,-5.20677 v -9.07193 c 2.842961,0 3.737381,0.0319 5.206771,0.22361 v -6.35674 c -2.4277,0.19166 -3.19434,0.22361 -5.206771,0.22361 v -0.47915 c 0,-1.34163 0.543037,-1.88467 1.916601,-1.88467 1.40551,0 2.52353,0.25555 3.386,0.79859 l 1.11802,-5.52621 c -1.82077,-0.47915 -3.57766,-0.67081 -5.813697,-0.67081 -5.430378,0 -8.08168,2.10826 -8.08168,6.35674 v 1.40551 c -2.267981,0 -3.098509,-0.0639 -4.440132,-0.22361 v 6.35674 c 1.245793,-0.19166 1.980491,-0.22361 4.440132,-0.22361 z"
         style="font-weight:900;font-family:'.Hiragino Kaku Gothic Interface';-inkscape-font-specification:'.Hiragino Kaku Gothic Interface Heavy'"
         id="path1806" />
      <path
         d="m 109.56942,148.66222 c 0,2.33186 -0.0639,3.67349 -0.25555,5.23871 h 7.98585 c -0.19166,-1.53328 -0.25555,-2.81102 -0.25555,-5.20677 v -9.07193 c 2.84296,0 3.73738,0.0319 5.20677,0.22361 v -6.35674 c -2.42769,0.19166 -3.19434,0.22361 -5.20677,0.22361 v -0.47915 c 0,-1.34163 0.54304,-1.88467 1.9166,-1.88467 1.40551,0 2.52353,0.25555 3.386,0.79859 l 1.11802,-5.52621 c -1.82077,-0.47915 -3.57766,-0.67081 -5.81369,-0.67081 -5.43038,0 -8.08168,2.10826 -8.08168,6.35674 v 1.40551 c -2.26799,0 -3.09851,-0.0639 -4.44014,-0.22361 v 6.35674 c 1.2458,-0.19166 1.98049,-0.22361 4.44014,-0.22361 z"
         style="font-weight:900;font-family:'.Hiragino Kaku Gothic Interface';-inkscape-font-specification:'.Hiragino Kaku Gothic Interface Heavy'"
         id="path1808" />
    </g>
    <g
       aria-label="mi"
       id="text8609"
       style="font-size:51.1528px;line-height:1.25;stroke-width:0.212465">
      <path
         d="m 132.97202,130.71626 q 1.63689,0 2.30188,0.99748 0.66499,0.99748 0.66499,2.76225 v 21.71436 q -0.51153,0.10231 -1.20209,0.15346 -0.69057,0.0512 -1.40671,0.0512 -0.71614,0 -1.4067,-0.0512 -0.69056,-0.0511 -1.25324,-0.15346 v -25.11602 l 0.33249,-0.35807 z m 11.56054,9.46327 q 0,-2.7111 -0.7673,-3.81089 -0.76729,-1.12536 -2.27629,-1.12536 -1.27882,0 -2.73668,0.81845 -1.43228,0.79286 -2.65995,2.12284 -1.22766,1.32997 -1.9438,2.96686 v -5.14086 q 1.12536,-1.58573 2.55764,-2.8134 1.45785,-1.25324 3.09474,-1.96938 1.66247,-0.74172 3.37609,-0.74172 2.22514,0 3.70858,1.07421 1.48343,1.04863 2.19957,2.86456 0.74171,1.79034 0.74171,3.98991 v 17.7756 q -0.56268,0.10231 -1.25324,0.15346 -0.69056,0.0512 -1.38113,0.0512 -0.71614,0 -1.4067,-0.0512 -0.69056,-0.0511 -1.25324,-0.15346 z m 13.86241,-0.0512 q 0,-2.71109 -0.79287,-3.7853 -0.76729,-1.09979 -2.2763,-1.09979 -1.20209,0 -2.63437,0.79287 -1.4067,0.76729 -2.68552,2.12284 -1.27882,1.35555 -2.12284,3.12032 v -5.88257 q 1.27882,-1.38113 2.76225,-2.48091 1.48343,-1.12536 3.14589,-1.76477 1.66247,-0.66499 3.35051,-0.66499 2.22515,0 3.683,1.07421 1.45786,1.07421 2.14842,2.89013 0.71614,1.79035 0.71614,4.04107 v 12.30225 q 0,1.32998 0.17904,2.53207 0.17903,1.17651 0.66498,2.07168 -0.58825,0.48596 -1.48343,0.79287 -0.8696,0.3325 -1.81592,0.3325 -1.56016,0 -2.19957,-0.84402 -0.63941,-0.84403 -0.63941,-2.50649 z"
         style="font-family:Signika;-inkscape-font-specification:Signika"
         id="path1801" />
      <path
         d="m 177.41742,156.19035 q -0.53711,0.10231 -1.22767,0.15346 -0.69056,0.0512 -1.4067,0.0512 -0.71614,0 -1.40671,-0.0512 -0.69056,-0.0511 -1.25324,-0.15346 v -18.7475 q 0,-1.35555 -0.48595,-1.99496 -0.46038,-0.66498 -1.7392,-0.66498 h -0.56268 q -0.23018,-0.92075 -0.23018,-1.86708 0,-0.46038 0.0512,-0.92075 0.0512,-0.48595 0.17903,-0.99748 0.97191,-0.12788 1.81593,-0.17904 0.8696,-0.0511 1.43228,-0.0511 h 0.69056 q 1.91823,0 3.01801,1.22767 1.12537,1.20209 1.12537,3.29935 z m -6.85448,-32.0728 q 0,-0.56268 0.10231,-1.20209 0.12788,-0.63941 0.35807,-1.09979 0.46037,-0.25576 1.25324,-0.4348 0.81844,-0.17903 1.56016,-0.17903 0.71614,0 1.56016,0.17903 0.84402,0.17904 1.25324,0.4348 0.23019,0.46038 0.3325,1.12536 0.12788,0.63941 0.12788,1.17652 0,0.5371 -0.12788,1.17651 -0.10231,0.63941 -0.3325,1.09979 -0.35807,0.25576 -1.22766,0.46037 -0.8696,0.17904 -1.58574,0.17904 -0.74172,0 -1.56016,-0.17904 -0.81845,-0.17903 -1.25324,-0.46037 -0.23019,-0.46038 -0.35807,-1.09979 -0.10231,-0.63941 -0.10231,-1.17651 z"
         style="font-family:Signika;-inkscape-font-specification:Signika"
         id="path1803" />
    </g>
  </g>
</svg>
