<?xml version="1.0" encoding="UTF-8" standalone="no"?>
<!-- Created with Inkscape (http://www.inkscape.org/) -->

<svg
   width="197.85437mm"
   height="43.670109mm"
   viewBox="0 0 197.85437 43.670109"
   version="1.1"
   id="svg5"
   inkscape:version="1.1.1 (c3084ef, 2021-09-22)"
   sodipodi:docname="web_logo.svg"
   inkscape:export-filename="/Users/mes/Sync/Material/Amuon/logo.png"
   inkscape:export-xdpi="150"
   inkscape:export-ydpi="150"
   xmlns:inkscape="http://www.inkscape.org/namespaces/inkscape"
   xmlns:sodipodi="http://sodipodi.sourceforge.net/DTD/sodipodi-0.dtd"
   xmlns="http://www.w3.org/2000/svg"
   xmlns:svg="http://www.w3.org/2000/svg">
  <sodipodi:namedview
     id="namedview7"
     pagecolor="#ffffff"
     bordercolor="#666666"
     borderopacity="1.0"
     inkscape:pageshadow="2"
     inkscape:pageopacity="0.0"
     inkscape:pagecheckerboard="0"
     inkscape:document-units="mm"
     showgrid="false"
     inkscape:zoom="0.77771465"
     inkscape:cx="259.09246"
     inkscape:cy="7.7149119"
     inkscape:window-width="1280"
     inkscape:window-height="800"
     inkscape:window-x="1491"
     inkscape:window-y="347"
     inkscape:window-maximized="0"
     inkscape:current-layer="layer1"
     fit-margin-top="0"
     fit-margin-left="0"
     fit-margin-right="0"
     fit-margin-bottom="0" />
  <defs
     id="defs2">
    <clipPath
       clipPathUnits="userSpaceOnUse"
       id="clipPath25848">
      <ellipse
         style="opacity:1;fill:#6e0080;stroke:#6e0080;stroke-width:5.85229"
         id="ellipse25850"
         cx="54.141758"
         cy="137.49228"
         rx="30.852196"
         ry="30.852203" />
    </clipPath>
  </defs>
  <g
     inkscape:label="Layer 1"
     inkscape:groupmode="layer"
     id="layer1"
     transform="translate(-7.2551513,-116.76384)">
    <path
       id="text2146"
       style="font-style:normal;font-weight:normal;font-size:51.1528px;line-height:1.25;font-family:sans-serif;fill:#000000;fill-opacity:1;stroke:none;stroke-width:0.803017"
       d="M 234.6582 14.90625 C 232.98265 14.90625 230.9528 14.97072 228.56836 15.099609 C 226.24836 15.228498 224.28299 15.42191 222.67188 15.679688 L 179.07617 146.27734 L 179.65625 147.33984 C 181.00958 147.72651 182.55492 148.04886 184.29492 148.30664 C 186.09937 148.56442 187.90454 148.69336 189.70898 148.69336 C 191.3201 148.69336 192.86739 148.62889 194.34961 148.5 C 195.89628 148.37111 197.31267 148.1777 198.60156 147.91992 L 208.84375 115.67578 C 209.48737 115.6917 209.87931 115.69477 210.87891 115.73047 C 212.7478 115.73047 214.58423 115.76173 216.38867 115.82617 L 220.0625 115.82617 L 246.64648 115.82617 L 250.31836 115.82617 C 252.18725 115.76173 254.05689 115.73047 255.92578 115.73047 C 257.04615 115.69184 257.50522 115.68735 258.18555 115.67188 L 265.30273 138.15625 C 266.65607 142.47403 268.20141 145.37325 269.94141 146.85547 C 271.74585 148.33769 274.29146 149.08008 277.57812 149.08008 C 279.76924 149.08008 281.92802 148.85346 284.05469 148.40234 C 286.2458 148.01568 288.08418 147.37097 289.56641 146.46875 L 246.16211 15.775391 C 244.74433 15.453168 242.87469 15.228498 240.55469 15.099609 C 238.23469 14.97072 236.26931 14.90625 234.6582 14.90625 z M 232.82227 35.980469 L 233.78906 35.980469 C 235.20684 41.071582 236.8186 46.774285 238.62305 53.089844 C 240.42749 59.405402 242.23071 65.365987 244.03516 70.972656 L 252.87891 98.910156 L 251.57617 98.910156 C 249.90062 98.845712 248.2576 98.8125 246.64648 98.8125 C 245.03537 98.748056 243.90616 98.716797 243.26172 98.716797 L 224.02539 98.716797 C 223.44539 98.716797 222.31813 98.748056 220.64258 98.8125 C 219.03147 98.8125 217.41971 98.845712 215.80859 98.910156 L 214.16797 98.910156 L 225.2832 63.916016 C 225.99209 61.53157 226.797 58.728083 227.69922 55.505859 C 228.60144 52.219191 229.50403 48.868682 230.40625 45.453125 C 231.37292 42.037568 232.17782 38.88047 232.82227 35.980469 z M 602.98242 49.802734 C 593.89575 49.802734 586.26089 51.961517 580.07422 56.279297 C 573.88755 60.532632 569.21442 66.428747 566.05664 73.96875 C 562.89886 81.508753 561.32031 90.177096 561.32031 99.972656 C 561.32031 109.70377 562.86565 118.37211 565.95898 125.97656 C 569.11676 133.51657 573.78989 139.44589 579.97656 143.76367 C 586.16323 148.08145 593.83131 150.24023 602.98242 150.24023 C 612.19798 150.24023 619.89927 148.11271 626.08594 143.85938 C 632.27261 139.60604 636.94574 133.70993 640.10352 126.16992 C 643.26129 118.56547 644.83984 109.83266 644.83984 99.972656 C 644.83984 90.177096 643.29255 81.508753 640.19922 73.96875 C 637.10588 66.428747 632.43471 60.532632 626.18359 56.279297 C 619.99692 51.961517 612.26243 49.802734 602.98242 49.802734 z M 355.75 50.576172 C 351.43222 50.576172 347.17717 51.510016 342.98828 53.378906 C 338.86383 55.183352 334.9663 57.664486 331.29297 60.822266 C 330.26908 61.699886 329.28 62.620069 328.31836 63.570312 C 328.09001 60.110961 327.28171 57.321007 325.87891 55.216797 C 324.20335 52.703462 321.30413 51.447266 317.17969 51.447266 L 309.73633 51.447266 L 308.47852 52.798828 L 308.47852 147.72656 C 309.89629 147.98434 311.47484 148.17775 313.21484 148.30664 C 314.95484 148.43553 316.72876 148.5 318.5332 148.5 C 320.33765 148.5 322.10961 148.43553 323.84961 148.30664 C 325.58961 148.17775 327.10369 147.98434 328.39258 147.72656 L 328.39258 80.326172 C 328.58548 80.108287 328.77446 79.888539 328.97266 79.673828 C 332.06599 76.322715 335.4165 73.648169 339.02539 71.650391 C 342.69873 69.588167 346.14692 68.556641 349.36914 68.556641 C 353.17136 68.556641 356.03932 69.97499 357.97266 72.810547 C 359.90599 75.581659 360.87305 80.381776 360.87305 87.212891 L 360.87305 147.72656 C 362.29083 147.98434 363.86937 148.17775 365.60938 148.30664 C 367.34938 148.43553 369.12134 148.5 370.92578 148.5 C 372.66578 148.5 374.40648 148.43553 376.14648 148.30664 C 377.88649 148.17775 379.46503 147.98434 380.88281 147.72656 L 380.88281 80.542969 C 380.88281 80.470536 380.87923 80.400382 380.87891 80.328125 C 381.10516 80.076934 381.32666 79.822021 381.55859 79.576172 C 384.78082 76.160615 388.16454 73.486069 391.70898 71.552734 C 395.31787 69.554956 398.63713 68.556641 401.66602 68.556641 C 405.46824 68.556641 408.3362 69.941778 410.26953 72.712891 C 412.26731 75.419559 413.26562 80.188417 413.26562 87.019531 L 413.26562 136.32031 C 413.26563 140.5092 414.07053 143.6663 415.68164 145.79297 C 417.29275 147.91964 420.06498 148.98242 423.99609 148.98242 C 426.38054 148.98242 428.66826 148.56434 430.85938 147.72656 C 433.11493 146.95323 434.98262 145.95491 436.46484 144.73047 C 435.2404 142.47491 434.40424 139.86484 433.95312 136.90039 C 433.50201 133.8715 433.27539 130.68119 433.27539 127.33008 L 433.27539 80.833984 C 433.27539 75.162871 432.3728 70.07166 430.56836 65.560547 C 428.82836 60.984989 426.12255 57.343387 422.44922 54.636719 C 418.77588 51.930051 414.13597 50.576172 408.5293 50.576172 C 404.27596 50.576172 400.05413 51.414287 395.86523 53.089844 C 391.67634 54.700956 387.71434 56.924209 383.97656 59.759766 C 381.83912 61.344423 379.79502 63.058528 377.82617 64.875 C 376.0198 60.582041 373.33897 57.162705 369.76562 54.636719 C 366.02785 51.930051 361.35667 50.576172 355.75 50.576172 z M 718.89258 50.576172 C 711.93257 50.576172 705.32729 52.316873 699.07617 55.796875 C 695.03113 58.007052 691.39761 60.546488 688.16211 63.404297 C 687.91875 60.022551 687.11642 57.286933 685.73633 55.216797 C 684.12522 52.703462 681.22405 51.447266 677.03516 51.447266 L 669.5918 51.447266 L 668.33594 52.703125 L 668.33594 147.72656 C 669.75372 147.98434 671.33226 148.17775 673.07227 148.30664 C 674.81227 148.43553 676.58423 148.5 678.38867 148.5 C 680.19312 148.5 681.96508 148.43553 683.70508 148.30664 C 685.44508 148.17775 686.96111 147.98434 688.25 147.72656 L 688.25 80.507812 C 689.21332 79.46984 690.23886 78.480133 691.3418 77.546875 C 694.69291 74.646874 698.23878 72.423621 701.97656 70.876953 C 705.77879 69.330286 709.29145 68.556641 712.51367 68.556641 C 717.21812 68.556641 720.40647 70.03946 722.08203 73.003906 C 723.75759 75.903908 724.5957 80.608296 724.5957 87.117188 L 724.5957 136.32031 C 724.5957 140.5092 725.36935 143.6663 726.91602 145.79297 C 728.52713 147.91964 731.2974 148.98242 735.22852 148.98242 C 737.61296 148.98242 739.9339 148.56434 742.18945 147.72656 C 744.44501 146.95323 746.31465 145.95491 747.79688 144.73047 C 746.57243 142.47491 745.7011 139.86484 745.18555 136.90039 C 744.73444 133.8715 744.50977 130.68119 744.50977 127.33008 L 744.50977 82.283203 C 744.50977 76.289867 743.60718 70.909516 741.80273 66.140625 C 740.06273 61.371734 737.32372 57.601191 733.58594 54.830078 C 729.84816 51.994521 724.95036 50.576172 718.89258 50.576172 z M 471.04883 51.060547 C 468.66438 51.060547 466.34345 51.478628 464.08789 52.316406 C 461.83233 53.08974 459.9959 54.088055 458.57812 55.3125 C 459.73813 57.568057 460.54303 60.211344 460.99414 63.240234 C 461.44525 66.20468 461.67188 69.361778 461.67188 72.712891 L 461.67188 117.75977 C 461.67187 123.62421 462.54125 128.97331 464.28125 133.80664 C 466.0857 138.63998 468.85792 142.47499 472.5957 145.31055 C 476.39793 148.08166 481.29573 149.4668 487.28906 149.4668 C 494.31351 149.4668 500.95006 147.75931 507.20117 144.34375 C 511.98077 141.68294 516.17349 138.56696 519.78516 135.00195 C 520.40225 136.77147 521.16031 138.47197 522.08789 140.08984 C 524.92345 144.85873 529.49889 147.88689 535.81445 149.17578 C 537.42556 148.14467 538.93964 146.6638 540.35742 144.73047 C 541.7752 142.73269 542.74226 140.79858 543.25781 138.92969 C 541.19559 137.0608 539.77919 134.48393 539.00586 131.19727 C 538.23253 127.9106 537.8457 124.39794 537.8457 120.66016 L 537.8457 52.316406 C 536.49237 52.058628 534.94508 51.865217 533.20508 51.736328 C 531.46508 51.607439 529.69312 51.542969 527.88867 51.542969 C 526.08423 51.542969 524.27905 51.607439 522.47461 51.736328 C 520.73461 51.865217 519.22053 52.058628 517.93164 52.316406 L 517.93164 119.5332 C 516.96805 120.57154 515.94119 121.56254 514.83789 122.49609 C 511.48678 125.33165 507.94286 127.5549 504.20508 129.16602 C 500.4673 130.71268 496.95464 131.48633 493.66797 131.48633 C 488.96352 131.48633 485.77321 130.00351 484.09766 127.03906 C 482.48654 124.07462 481.68164 119.37023 481.68164 112.92578 L 481.68164 63.722656 C 481.68164 59.533765 480.87674 56.376668 479.26562 54.25 C 477.65451 52.123332 474.9155 51.060547 471.04883 51.060547 z M 603.17578 64.882812 C 608.71801 64.882812 613.00431 66.559044 616.0332 69.910156 C 619.06209 73.261269 621.18962 77.610093 622.41406 82.958984 C 623.63851 88.307876 624.25 93.97932 624.25 99.972656 C 624.25 105.96599 623.63851 111.63744 622.41406 116.98633 C 621.18962 122.33522 619.06209 126.686 616.0332 130.03711 C 613.00431 133.32378 608.71801 134.9668 603.17578 134.9668 C 597.63356 134.9668 593.31599 133.32378 590.22266 130.03711 C 587.12932 126.686 584.97054 122.33522 583.74609 116.98633 C 582.52165 111.63744 581.91016 105.96599 581.91016 99.972656 C 581.91016 93.97932 582.52165 88.307876 583.74609 82.958984 C 584.97054 77.610093 587.12932 73.261269 590.22266 69.910156 C 593.31599 66.559044 597.63356 64.882812 603.17578 64.882812 z "
       transform="matrix(0.26458333,0,0,0.26458333,7.2551513,116.76384)" />
    <rect
       style="opacity:1;fill:#3ad393;fill-opacity:1;stroke:none;stroke-width:1.80976;stroke-miterlimit:4;stroke-dasharray:none;stroke-opacity:1"
       id="rect48982"
       width="41.860348"
       height="41.860348"
       x="8.1600313"
       y="117.66872" />
    <path
       id="text43362"
       style="font-style:normal;font-weight:normal;font-size:34.5947px;line-height:1.25;font-family:sans-serif;fill:#ffffff;fill-opacity:1;stroke:none;stroke-width:0.680999"
       d="M 49.236328 46.044922 C 46.44696 46.044922 43.265284 46.284249 39.691406 46.763672 C 36.161112 47.199511 32.609034 47.854885 29.035156 48.726562 C 25.461279 49.554656 22.213088 50.57848 19.292969 51.798828 C 19.510888 54.326693 20.012365 56.919509 20.796875 59.578125 C 21.624969 62.193157 22.758998 64.328188 24.197266 65.984375 C 27.640392 64.981946 31.017704 64.045506 34.330078 63.173828 C 37.642453 62.258567 40.693054 61.800781 43.482422 61.800781 C 46.446125 61.800781 48.603978 62.497894 49.955078 63.892578 C 51.349762 65.287262 52.046875 67.357732 52.046875 70.103516 L 52.046875 72.482422 C 51.406301 72.443449 50.756884 72.412026 50.085938 72.392578 C 47.122234 72.30541 44.65854 72.261719 42.697266 72.261719 C 38.208127 72.261719 33.981758 73.067084 30.015625 74.679688 C 26.093076 76.292291 22.9114 78.776854 20.470703 82.132812 C 18.030006 85.445187 16.808594 89.73807 16.808594 95.011719 C 16.808594 98.106174 17.528529 101.1796 18.966797 104.23047 C 20.405065 107.28134 22.583787 109.80764 25.503906 111.8125 C 28.46761 113.81736 32.194455 114.82031 36.683594 114.82031 C 40.606142 114.82031 44.027146 114.18776 46.947266 112.92383 C 49.867385 111.6599 52.416509 110.04916 54.595703 108.08789 C 54.996499 107.72717 55.381047 107.36414 55.765625 107.00195 C 56.98378 108.63434 58.510266 110.06479 60.349609 111.29102 C 62.877474 112.9472 66.05915 113.81908 69.894531 113.90625 C 71.158464 112.90382 72.421615 111.3557 73.685547 109.26367 C 74.949479 107.17165 75.756798 105.23225 76.105469 103.44531 C 74.841536 102.53005 73.905096 101.35233 73.294922 99.914062 C 72.728332 98.475795 72.443359 96.821372 72.443359 94.947266 L 72.443359 68.337891 C 72.443359 62.802739 71.288461 58.422472 68.978516 55.197266 C 66.712154 51.928475 63.81545 49.597809 60.285156 48.203125 C 56.754862 46.764857 53.071709 46.044922 49.236328 46.044922 z M 97.962891 46.830078 C 96.219536 46.830078 94.432085 46.894639 92.601562 47.025391 C 90.77104 47.156142 89.137487 47.353731 87.699219 47.615234 L 87.699219 124.10352 C 87.699219 125.62895 87.503583 127.74311 87.111328 130.44531 C 86.762657 133.14751 85.890778 135.45731 84.496094 137.375 C 86.239449 138.68252 88.112329 139.68547 90.117188 140.38281 C 92.122046 141.12374 94.367282 141.49414 96.851562 141.49414 C 101.0792 141.49414 103.7594 140.1873 104.89258 137.57227 C 106.02576 134.95723 106.5918 131.64448 106.5918 127.63477 L 106.5918 112.48633 C 108.5801 113.51158 110.7344 114.03711 113.06445 114.03711 C 117.16134 114.03711 120.58234 112.8157 123.32812 110.375 C 124.72286 109.13523 125.91878 107.74261 126.91992 106.19922 C 127.28665 106.77623 127.67528 107.34254 128.10156 107.89062 C 131.15243 111.81317 135.57639 113.81908 141.37305 113.90625 C 142.63698 112.90382 143.90013 111.39939 145.16406 109.39453 C 146.42799 107.38967 147.25618 105.47115 147.64844 103.64062 C 146.55884 102.85612 145.66609 101.59296 144.96875 99.849609 C 144.31499 98.106254 143.98828 96.187729 143.98828 94.095703 L 143.98828 47.615234 C 142.50643 47.353731 140.85005 47.156142 139.01953 47.025391 C 137.18901 46.894639 135.42438 46.830078 133.72461 46.830078 C 131.98125 46.830078 130.1938 46.894639 128.36328 47.025391 C 126.57634 47.156142 124.96366 47.353731 123.52539 47.615234 L 123.52539 92.548828 C 123.16308 93.003444 122.79441 93.43869 122.41406 93.835938 C 120.49637 95.88438 118.16375 96.908203 115.41797 96.908203 C 112.75935 96.908203 110.84278 96.013501 109.66602 94.226562 C 108.48925 92.439624 107.90039 90.152649 107.90039 87.363281 L 107.90039 81.478516 L 107.90039 47.615234 C 104.98027 47.092228 101.66752 46.830078 97.962891 46.830078 z M 44.855469 85.335938 C 46.598824 85.335938 48.777546 85.379629 51.392578 85.466797 C 51.618851 85.470506 51.826284 85.483684 52.046875 85.490234 L 52.046875 95.853516 C 51.600233 96.223332 51.145724 96.58092 50.673828 96.908203 C 47.971628 98.78231 45.312298 99.71875 42.697266 99.71875 C 40.866743 99.71875 39.407956 99.152712 38.318359 98.019531 C 37.228763 96.842767 36.683594 95.382027 36.683594 93.638672 C 36.683594 91.197975 37.316146 89.214889 38.580078 87.689453 C 39.84401 86.120434 41.935349 85.335938 44.855469 85.335938 z "
       transform="matrix(0.26458333,0,0,0.26458333,7.2551513,116.76384)" />
  </g>
</svg>
